<svg xmlns="http://www.w3.org/2000/svg" viewBox="0 0 37.09 37.09"><defs><style>.cls-1{fill:#fff;opacity:0.8;}</style></defs><title>pause_small</title><g id="Camada_2" data-name="Camada 2"><g id="tela2"><path class="cls-1" d="M18.54,0A18.55,18.55,0,1,0,37.09,18.54,18.54,18.54,0,0,0,18.54,0ZM15.31,27h0a1.67,1.67,0,0,1-1.66-1.67V11.8a1.67,1.67,0,0,1,1.66-1.66h0A1.67,1.67,0,0,1,17,11.8V25.32A1.67,1.67,0,0,1,15.31,27Zm6.93,0h0a1.67,1.67,0,0,1-1.66-1.67V11.8a1.67,1.67,0,0,1,1.66-1.66h0A1.66,1.66,0,0,1,23.9,11.8V25.32A1.66,1.66,0,0,1,22.24,27Z"/></g></g></svg>