<svg xmlns="http://www.w3.org/2000/svg" viewBox="0 0 74.07 74.07"><defs><style>.cls-1{fill:#fff;opacity:0.8;}</style></defs><title>pause_md</title><g id="Camada_2" data-name="Camada 2"><g id="tela3"><path class="cls-1" d="M37,0a37,37,0,1,0,37,37A37,37,0,0,0,37,0ZM30.58,53.89h0a3.33,3.33,0,0,1-3.32-3.32v-27a3.33,3.33,0,0,1,3.32-3.32h0a3.33,3.33,0,0,1,3.33,3.32v27A3.33,3.33,0,0,1,30.58,53.89Zm13.84,0h0a3.33,3.33,0,0,1-3.33-3.32v-27a3.33,3.33,0,0,1,3.33-3.32h0a3.33,3.33,0,0,1,3.32,3.32v27A3.33,3.33,0,0,1,44.42,53.89Z"/></g></g></svg>